HIERARCHY
ROOT mixamorig:Hips
{
	OFFSET 0.000000 201.639420 0.000000
	CHANNELS 6 Xposition Yposition Zposition Xrotation Yrotation Zrotation
	JOINT mixamorig:Spine
	{
		OFFSET 0.006200 19.524994 -2.481800
		CHANNELS 3 Xrotation Yrotation Zrotation
		JOINT mixamorig:Spine1
		{
			OFFSET -0.000900 22.835007 -2.825400
			CHANNELS 3 Xrotation Yrotation Zrotation
			JOINT mixamorig:Spine2
			{
				OFFSET -0.020600 26.552490 -3.193300
				CHANNELS 3 Xrotation Yrotation Zrotation
				JOINT mixamorig:Neck
				{
					OFFSET -0.060000 30.701813 1.352200
					CHANNELS 3 Xrotation Yrotation Zrotation
					JOINT mixamorig:Head
					{
						OFFSET -0.087200 22.547607 3.670900
						CHANNELS 3 Xrotation Yrotation Zrotation
						JOINT mixamorig:HeadTop_End
						{
							OFFSET -0.830600 40.355194 7.893500
							CHANNELS 3 Xrotation Yrotation Zrotation
							End Site
							{
								OFFSET 0.000000 30.592346 0.000000
							}
						}
						JOINT mixamorig:RightEye
						{
							OFFSET -6.302100 18.118591 16.197100
							CHANNELS 3 Xrotation Yrotation Zrotation
							End Site
							{
								OFFSET 0.000000 30.592346 0.000000
							}
						}
						JOINT mixamorig:LeftEye
						{
							OFFSET 6.741500 18.382690 16.401899
							CHANNELS 3 Xrotation Yrotation Zrotation
							End Site
							{
								OFFSET 0.000000 30.592346 0.000000
							}
						}
					}
				}
				JOINT mixamorig:LeftShoulder
				{
					OFFSET 11.924900 18.230499 1.425400
					CHANNELS 3 Xrotation Yrotation Zrotation
					JOINT mixamorig:LeftArm
					{
						OFFSET 25.435989 -0.697632 -5.229300
						CHANNELS 3 Xrotation Yrotation Zrotation
						JOINT mixamorig:LeftForeArm
						{
							OFFSET 54.684776 0.000000 0.000000
							CHANNELS 3 Xrotation Yrotation Zrotation
							JOINT mixamorig:LeftHand
							{
								OFFSET 55.098175 0.000000 0.000000
								CHANNELS 3 Xrotation Yrotation Zrotation
								JOINT mixamorig:LeftHandMiddle1
								{
									OFFSET 23.369751 0.000000 0.000000
									CHANNELS 3 Xrotation Yrotation Zrotation
									JOINT mixamorig:LeftHandMiddle2
									{
										OFFSET 6.378677 0.000000 0.000000
										CHANNELS 3 Xrotation Yrotation Zrotation
										JOINT mixamorig:LeftHandMiddle3
										{
											OFFSET 6.148331 0.000000 0.000000
											CHANNELS 3 Xrotation Yrotation Zrotation
											JOINT mixamorig:LeftHandMiddle4
											{
												OFFSET 6.582504 0.000000 0.000000
												CHANNELS 3 Xrotation Yrotation Zrotation
												End Site
												{
													OFFSET -1.168900 6.395691 1.028606
												}
											}
										}
									}
								}
								JOINT mixamorig:LeftHandThumb1
								{
									OFFSET 7.235672 -3.848206 5.434273
									CHANNELS 3 Xrotation Yrotation Zrotation
									JOINT mixamorig:LeftHandThumb2
									{
										OFFSET 6.568451 -3.792297 3.792300
										CHANNELS 3 Xrotation Yrotation Zrotation
										JOINT mixamorig:LeftHandThumb3
										{
											OFFSET 6.063080 -3.500519 3.500518
											CHANNELS 3 Xrotation Yrotation Zrotation
											JOINT mixamorig:LeftHandThumb4
											{
												OFFSET 4.793182 -2.767334 2.767349
												CHANNELS 3 Xrotation Yrotation Zrotation
												End Site
												{
													OFFSET 0.101639 6.054260 1.275483
												}
											}
										}
									}
								}
								JOINT mixamorig:LeftHandIndex1
								{
									OFFSET 23.101074 -0.309540 4.992809
									CHANNELS 3 Xrotation Yrotation Zrotation
									JOINT mixamorig:LeftHandIndex2
									{
										OFFSET 6.226883 0.000000 0.000000
										CHANNELS 3 Xrotation Yrotation Zrotation
										JOINT mixamorig:LeftHandIndex3
										{
											OFFSET 6.094330 0.000000 0.000000
											CHANNELS 3 Xrotation Yrotation Zrotation
											JOINT mixamorig:LeftHandIndex4
											{
												OFFSET 5.482605 0.000000 0.000000
												CHANNELS 3 Xrotation Yrotation Zrotation
												End Site
												{
													OFFSET -1.427902 5.233032 0.797164
												}
											}
										}
									}
								}
								JOINT mixamorig:LeftHandRing1
								{
									OFFSET 22.299240 0.021149 -3.964172
									CHANNELS 3 Xrotation Yrotation Zrotation
									JOINT mixamorig:LeftHandRing2
									{
										OFFSET 6.321869 0.000000 0.000000
										CHANNELS 3 Xrotation Yrotation Zrotation
										JOINT mixamorig:LeftHandRing3
										{
											OFFSET 5.899796 0.000000 0.000000
											CHANNELS 3 Xrotation Yrotation Zrotation
											JOINT mixamorig:LeftHandRing4
											{
												OFFSET 6.517899 0.000000 0.000000
												CHANNELS 3 Xrotation Yrotation Zrotation
												End Site
												{
													OFFSET -1.637299 6.232208 0.980890
												}
											}
										}
									}
								}
								JOINT mixamorig:LeftHandPinky1
								{
									OFFSET 20.463791 -0.302338 -8.562233
									CHANNELS 3 Xrotation Yrotation Zrotation
									JOINT mixamorig:LeftHandPinky2
									{
										OFFSET 6.908646 0.000000 0.000000
										CHANNELS 3 Xrotation Yrotation Zrotation
										JOINT mixamorig:LeftHandPinky3
										{
											OFFSET 4.622849 0.000000 0.000000
											CHANNELS 3 Xrotation Yrotation Zrotation
											JOINT mixamorig:LeftHandPinky4
											{
												OFFSET 5.216080 0.000000 0.000000
												CHANNELS 3 Xrotation Yrotation Zrotation
												End Site
												{
													OFFSET -0.606308 5.116241 0.814926
												}
											}
										}
									}
								}
							}
						}
					}
				}
				JOINT mixamorig:RightShoulder
				{
					OFFSET -12.001300 18.284088 1.348900
					CHANNELS 3 Xrotation Yrotation Zrotation
					JOINT mixamorig:RightArm
					{
						OFFSET -25.308500 -0.751312 -5.164599
						CHANNELS 3 Xrotation Yrotation Zrotation
						JOINT mixamorig:RightForeArm
						{
							OFFSET -54.684429 0.000000 0.000000
							CHANNELS 3 Xrotation Yrotation Zrotation
							JOINT mixamorig:RightHand
							{
								OFFSET -55.150291 0.000000 0.000000
								CHANNELS 3 Xrotation Yrotation Zrotation
								JOINT mixamorig:RightHandMiddle1
								{
									OFFSET -23.317566 0.000000 0.000000
									CHANNELS 3 Xrotation Yrotation Zrotation
									JOINT mixamorig:RightHandMiddle2
									{
										OFFSET -6.378403 0.000000 0.000000
										CHANNELS 3 Xrotation Yrotation Zrotation
										JOINT mixamorig:RightHandMiddle3
										{
											OFFSET -6.148193 0.000000 0.000000
											CHANNELS 3 Xrotation Yrotation Zrotation
											JOINT mixamorig:RightHandMiddle4
											{
												OFFSET -6.583389 0.000000 0.000000
												CHANNELS 3 Xrotation Yrotation Zrotation
												End Site
												{
													OFFSET 1.171692 6.395905 1.029786
												}
											}
										}
									}
								}
								JOINT mixamorig:RightHandThumb1
								{
									OFFSET -7.190521 -3.860474 5.435846
									CHANNELS 3 Xrotation Yrotation Zrotation
									JOINT mixamorig:RightHandThumb2
									{
										OFFSET -6.567429 -3.791718 3.791708
										CHANNELS 3 Xrotation Yrotation Zrotation
										JOINT mixamorig:RightHandThumb3
										{
											OFFSET -6.062469 -3.500153 3.500166
											CHANNELS 3 Xrotation Yrotation Zrotation
											JOINT mixamorig:RightHandThumb4
											{
												OFFSET -4.792618 -2.767029 2.767022
												CHANNELS 3 Xrotation Yrotation Zrotation
												End Site
												{
													OFFSET -0.100327 6.053253 1.276754
												}
											}
										}
									}
								}
								JOINT mixamorig:RightHandIndex1
								{
									OFFSET -23.048981 -0.310791 4.992554
									CHANNELS 3 Xrotation Yrotation Zrotation
									JOINT mixamorig:RightHandIndex2
									{
										OFFSET -6.227539 0.000000 0.000000
										CHANNELS 3 Xrotation Yrotation Zrotation
										JOINT mixamorig:RightHandIndex3
										{
											OFFSET -6.095047 0.000000 0.000000
											CHANNELS 3 Xrotation Yrotation Zrotation
											JOINT mixamorig:RightHandIndex4
											{
												OFFSET -5.484772 0.000000 0.000000
												CHANNELS 3 Xrotation Yrotation Zrotation
												End Site
												{
													OFFSET 1.420593 5.237305 0.797056
												}
											}
										}
									}
								}
								JOINT mixamorig:RightHandRing1
								{
									OFFSET -22.246323 0.020569 -3.963762
									CHANNELS 3 Xrotation Yrotation Zrotation
									JOINT mixamorig:RightHandRing2
									{
										OFFSET -6.322128 0.000000 0.000000
										CHANNELS 3 Xrotation Yrotation Zrotation
										JOINT mixamorig:RightHandRing3
										{
											OFFSET -5.900024 0.000000 0.000000
											CHANNELS 3 Xrotation Yrotation Zrotation
											JOINT mixamorig:RightHandRing4
											{
												OFFSET -6.518356 0.000000 0.000000
												CHANNELS 3 Xrotation Yrotation Zrotation
												End Site
												{
													OFFSET 1.636398 6.232697 0.982186
												}
											}
										}
									}
								}
								JOINT mixamorig:RightHandPinky1
								{
									OFFSET -20.411011 -0.303314 -8.561701
									CHANNELS 3 Xrotation Yrotation Zrotation
									JOINT mixamorig:RightHandPinky2
									{
										OFFSET -6.907349 0.000000 0.000000
										CHANNELS 3 Xrotation Yrotation Zrotation
										JOINT mixamorig:RightHandPinky3
										{
											OFFSET -4.623840 0.000000 0.000000
											CHANNELS 3 Xrotation Yrotation Zrotation
											JOINT mixamorig:RightHandPinky4
											{
												OFFSET -5.218353 0.000000 0.000000
												CHANNELS 3 Xrotation Yrotation Zrotation
												End Site
												{
													OFFSET 0.602097 5.118835 0.816273
												}
											}
										}
									}
								}
							}
						}
					}
				}
			}
		}
	}
	JOINT mixamorig:LeftUpLeg
	{
		OFFSET 18.168400 -13.561905 -0.039000
		CHANNELS 3 Xrotation Yrotation Zrotation
		JOINT mixamorig:LeftLeg
		{
			OFFSET 0.577358 -80.825211 -3.695000
			CHANNELS 3 Xrotation Yrotation Zrotation
			JOINT mixamorig:LeftFoot
			{
				OFFSET -0.577356 -83.370262 -6.520700
				CHANNELS 3 Xrotation Yrotation Zrotation
				JOINT mixamorig:LeftToeBase
				{
					OFFSET 0.750401 -20.798306 25.135401
					CHANNELS 3 Xrotation Yrotation Zrotation
					JOINT mixamorig:LeftToe_End
					{
						OFFSET -0.000500 0.001200 19.917799
						CHANNELS 3 Xrotation Yrotation Zrotation
						End Site
						{
							OFFSET 0.000000 19.917805 0.000000
						}
					}
				}
			}
		}
	}
	JOINT mixamorig:RightUpLeg
	{
		OFFSET -18.162500 -13.585098 -0.041000
		CHANNELS 3 Xrotation Yrotation Zrotation
		JOINT mixamorig:RightLeg
		{
			OFFSET -0.595024 -80.945297 -3.631900
			CHANNELS 3 Xrotation Yrotation Zrotation
			JOINT mixamorig:RightFoot
			{
				OFFSET 0.595024 -83.218193 -6.561200
				CHANNELS 3 Xrotation Yrotation Zrotation
				JOINT mixamorig:RightToeBase
				{
					OFFSET -0.753601 -20.807106 25.115000
					CHANNELS 3 Xrotation Yrotation Zrotation
					JOINT mixamorig:RightToe_End
					{
						OFFSET 0.000299 0.001700 19.918200
						CHANNELS 3 Xrotation Yrotation Zrotation
						End Site
						{
							OFFSET 0.000000 19.918203 0.000000
						}
					}
				}
			}
		}
	}
}
MOTION
Frames: 5
Frame Time: 0.033333
-0.025487 173.029282 -0.641363 -5.289776 -45.115008 0.096130 9.475562 7.180824 -1.803804 2.187716 0.989897 -0.915630 2.202829 0.982772 -0.894152 0.084651 13.220559 4.538678 8.920921 20.138135 -4.130235 -0.000000 0.000000 0.000000 -0.000000 0.000000 0.000000 -0.000000 0.000000 0.000000 1.117179 3.546349 -8.633312 -53.487020 4.935501 -51.502990 -0.000192 -106.358094 -0.000190 1.988612 -7.706140 -15.869256 -0.461471 3.841593 -39.722683 6.450739 5.820341 -95.892871 2.182885 4.561561 -51.127740 -0.000001 0.000001 0.000002 -6.141200 -11.690807 -6.761667 9.914078 42.595529 3.409871 -0.422802 8.108088 27.509091 0.000001 -0.000002 0.000002 0.255311 3.378222 -45.814324 5.654086 5.847745 -88.067462 2.162138 4.544814 -50.866369 -0.000001 0.000000 -0.000000 0.469728 4.966841 -39.799434 8.181050 5.368624 -113.503004 3.200488 5.218120 -63.022989 0.000002 -0.000002 0.000004 -3.762421 9.063699 -45.253814 5.342532 5.828997 -85.005311 8.716859 5.103344 -119.369181 0.000000 -0.000001 0.000001 3.036128 13.027197 -5.371410 -48.713725 27.172825 83.457098 0.000167 105.988307 -0.000166 -8.345367 17.548079 8.775696 -0.761621 -2.932899 39.031078 5.133900 -4.632771 95.881670 1.739749 -3.631697 51.181374 0.000000 -0.000001 0.000001 -7.341106 13.749666 7.412319 9.855783 -44.489107 -3.903255 -0.115786 -14.513059 -28.973867 -0.000002 -0.000001 0.000001 -0.124371 -2.384775 45.108874 4.500569 -4.654517 88.071178 1.723224 -3.618372 50.920116 0.000002 0.000001 0.000000 0.154759 -4.068813 39.122664 6.509726 -4.273605 113.462857 2.549575 -4.153902 63.067337 -0.000003 0.000000 -0.000002 -4.198878 -8.025503 44.637786 4.252912 -4.639631 85.014832 6.935956 -4.062614 119.322326 -0.000002 0.000000 0.000000 -34.130889 7.615473 16.986776 59.306867 -6.173484 4.298889 -22.400213 -8.372827 -14.231620 -1.594031 -0.000009 -0.000001 0.000000 0.000002 0.000000 -27.091488 -9.870196 -27.857058 58.168951 -9.793187 -7.732114 -23.346355 -5.495923 20.853109 -0.013013 0.000024 0.000001 -0.000000 0.000001 -0.000000 
-0.072638 172.596436 -1.690798 -5.524150 -45.667154 -0.055690 9.525520 7.332693 -1.533441 2.197463 1.026888 -0.862510 2.211330 1.021605 -0.841912 0.081054 13.269405 4.244751 8.683161 20.311820 -4.290974 0.000001 -0.000000 0.000001 0.000001 -0.000000 0.000001 0.000001 -0.000000 0.000001 1.116585 3.695275 -8.750097 -52.847598 5.031182 -51.850971 0.000079 -106.670363 0.000064 2.297869 -7.949341 -15.639373 -0.461470 3.841594 -39.722686 6.450741 5.820341 -95.892871 2.182884 4.561561 -51.127733 0.000001 -0.000000 0.000001 -6.141202 -11.690806 -6.761669 9.914084 42.595525 3.409872 -0.422800 8.108093 27.509094 0.000001 0.000002 -0.000002 0.255312 3.378219 -45.814324 5.654083 5.847745 -88.067462 2.162139 4.544815 -50.866369 -0.000000 0.000001 -0.000004 0.469729 4.966839 -39.799441 8.181049 5.368624 -113.503004 3.200490 5.218116 -63.022989 -0.000002 0.000001 -0.000002 -3.762422 9.063700 -45.253814 5.342532 5.829000 -85.005311 8.716862 5.103345 -119.369181 0.000000 -0.000000 -0.000002 3.025695 13.528973 -5.621965 -48.211222 26.763237 82.261548 0.000135 106.470444 -0.000156 -9.179379 17.199239 7.728281 -0.761623 -2.932903 39.031078 5.133898 -4.632771 95.881663 1.739752 -3.631696 51.181367 0.000000 0.000002 0.000003 -7.341109 13.749663 7.412322 9.855784 -44.489110 -3.903258 -0.115789 -14.513056 -28.973874 0.000000 0.000002 -0.000000 -0.124372 -2.384779 45.108878 4.500572 -4.654513 88.071178 1.723225 -3.618370 50.920112 0.000001 0.000001 -0.000003 0.154758 -4.068813 39.122664 6.509725 -4.273602 113.462857 2.549574 -4.153901 63.067337 0.000000 0.000001 0.000000 -4.198881 -8.025507 44.637786 4.252912 -4.639630 85.014832 6.935954 -4.062620 119.322326 -0.000001 0.000001 -0.000000 -35.072414 7.073188 17.182309 60.675733 -5.853010 4.442044 -20.468617 -8.269911 -14.403742 -3.478844 -0.000113 0.007649 -0.000000 -0.000000 -0.000000 -27.891754 -9.889172 -27.782290 59.027670 -9.028016 -8.033396 -23.763005 -5.506451 20.920499 -0.027507 -0.000017 -0.000001 -0.000000 0.000001 -0.000000 
0.100917 172.100647 -2.414293 -5.869873 -46.284678 -0.312321 9.637375 7.380411 -1.254694 2.222017 1.037108 -0.808614 2.235100 1.033496 -0.788681 0.080205 13.306163 4.008713 8.472448 20.448053 -4.479570 0.000000 -0.000000 -0.000001 0.000000 -0.000000 -0.000001 0.000000 -0.000000 -0.000001 1.125121 3.797496 -8.854751 -52.293817 5.108604 -52.161560 0.000048 -106.823312 0.000054 2.654302 -8.250391 -15.592591 -0.461471 3.841589 -39.722683 6.450742 5.820341 -95.892871 2.182883 4.561559 -51.127736 0.000001 -0.000001 0.000002 -6.141202 -11.690806 -6.761674 9.914077 42.595525 3.409877 -0.422800 8.108088 27.509094 0.000000 0.000001 -0.000000 0.255312 3.378218 -45.814324 5.654086 5.847745 -88.067462 2.162140 4.544811 -50.866369 -0.000001 0.000003 -0.000002 0.469727 4.966838 -39.799427 8.181049 5.368626 -113.503004 3.200490 5.218119 -63.022989 -0.000001 -0.000003 -0.000001 -3.762423 9.063696 -45.253814 5.342527 5.829001 -85.005311 8.716856 5.103342 -119.369181 0.000000 -0.000000 0.000002 2.995428 13.954681 -5.863081 -47.796926 26.399272 81.147306 -0.000067 107.050627 0.000067 -9.497665 16.946249 6.240650 -0.761621 -2.932903 39.031078 5.133896 -4.632775 95.881663 1.739749 -3.631693 51.181363 0.000002 0.000001 -0.000001 -7.341109 13.749661 7.412327 9.855783 -44.489107 -3.903260 -0.115789 -14.513059 -28.973867 -0.000002 0.000004 -0.000002 -0.124371 -2.384778 45.108878 4.500571 -4.654511 88.071184 1.723224 -3.618370 50.920116 0.000001 0.000001 -0.000000 0.154760 -4.068814 39.122664 6.509726 -4.273603 113.462850 2.549574 -4.153900 63.067337 0.000000 0.000003 -0.000000 -4.198876 -8.025507 44.637789 4.252909 -4.639634 85.014839 6.935955 -4.062617 119.322326 0.000001 0.000000 -0.000001 -36.068682 6.433837 17.392464 62.495295 -5.608605 4.473835 -18.434032 -8.145204 -14.874303 -5.607295 -0.014319 0.468942 -0.000000 -0.000000 0.000000 -28.719098 -9.974972 -27.784450 59.895643 -8.123883 -8.481964 -24.149894 -5.488215 20.774306 -0.144475 0.000023 -0.000006 -0.000000 -0.000000 -0.000000 
0.450235 171.528076 -2.723129 -6.323786 -46.896540 -0.663455 9.787941 7.283375 -0.951004 2.256319 1.010081 -0.752351 2.269094 1.008197 -0.732788 0.085064 13.322626 3.846308 8.335507 20.571012 -4.770349 -0.000001 0.000000 0.000000 -0.000001 0.000000 0.000000 -0.000001 0.000000 0.000000 1.162244 3.821239 -8.982795 -51.820850 5.175997 -52.405654 0.000103 -106.930430 0.000091 2.933033 -8.531661 -15.727743 -0.461471 3.841588 -39.722683 6.450742 5.820341 -95.892871 2.182883 4.561558 -51.127736 -0.000001 0.000000 -0.000000 -6.141201 -11.690806 -6.761670 9.914076 42.595525 3.409872 -0.422799 8.108089 27.509094 0.000002 -0.000000 -0.000000 0.255310 3.378218 -45.814320 5.654084 5.847745 -88.067462 2.162138 4.544811 -50.866362 -0.000001 -0.000000 -0.000001 0.469728 4.966840 -39.799437 8.181048 5.368626 -113.503004 3.200490 5.218119 -63.022989 -0.000001 0.000001 -0.000000 -3.762425 9.063701 -45.253814 5.342533 5.829001 -85.005311 8.716858 5.103343 -119.369181 -0.000002 -0.000001 0.000000 2.944902 14.293138 -6.053696 -47.457695 26.169996 80.078108 -0.000083 107.722103 0.000080 -9.442761 16.690662 4.369403 -0.761621 -2.932902 39.031078 5.133898 -4.632768 95.881670 1.739747 -3.631696 51.181367 -0.000001 0.000002 0.000001 -7.341107 13.749662 7.412322 9.855781 -44.489107 -3.903254 -0.115789 -14.513061 -28.973871 0.000002 0.000000 0.000002 -0.124372 -2.384775 45.108871 4.500573 -4.654512 88.071178 1.723226 -3.618372 50.920116 0.000001 -0.000003 -0.000000 0.154761 -4.068814 39.122664 6.509725 -4.273602 113.462850 2.549576 -4.153902 63.067344 -0.000000 -0.000000 -0.000002 -4.198877 -8.025506 44.637786 4.252909 -4.639632 85.014839 6.935958 -4.062618 119.322326 0.000001 0.000000 0.000000 -37.160908 5.709701 17.531969 64.817881 -5.303675 4.412343 -16.278023 -8.276049 -15.080349 -7.848183 -0.039463 0.845431 -0.000000 0.000002 -0.000000 -29.436479 -10.101880 -27.900086 60.671539 -7.061480 -9.042299 -24.489056 -5.483416 20.708891 -0.238778 -0.000008 0.000002 -0.000000 0.000001 -0.000000 
0.943784 170.862732 -2.652439 -6.869815 -47.455451 -1.106544 10.016364 7.084320 -0.550111 2.307140 0.955029 -0.677324 2.319893 0.955142 -0.657877 0.044960 13.333475 3.689613 8.235694 20.677052 -5.171002 0.000002 -0.000000 0.000000 0.000002 -0.000000 0.000000 0.000002 -0.000000 0.000000 1.232155 3.774601 -9.156585 -51.397098 5.172115 -52.568787 0.000294 -107.110385 0.000301 3.238751 -8.610232 -15.654227 -0.461468 3.841589 -39.722683 6.450742 5.820343 -95.892871 2.182884 4.561561 -51.127733 0.000002 -0.000001 -0.000001 -6.141200 -11.690806 -6.761664 9.914080 42.595525 3.409869 -0.422804 8.108090 27.509099 0.000004 -0.000000 -0.000001 0.255312 3.378221 -45.814324 5.654082 5.847744 -88.067462 2.162139 4.544810 -50.866369 0.000001 -0.000001 -0.000001 0.469729 4.966840 -39.799430 8.181048 5.368626 -113.503004 3.200488 5.218118 -63.022989 0.000000 0.000000 -0.000002 -3.762420 9.063699 -45.253814 5.342530 5.828999 -85.005311 8.716856 5.103343 -119.369181 0.000000 -0.000000 0.000001 2.855845 14.410280 -6.336744 -47.311259 25.998628 79.243691 0.000205 108.398866 -0.000180 -9.117175 16.371659 2.328007 -0.761622 -2.932906 39.031078 5.133901 -4.632770 95.881670 1.739748 -3.631698 51.181363 -0.000001 -0.000002 -0.000003 -7.341107 13.749664 7.412322 9.855783 -44.489107 -3.903260 -0.115791 -14.513059 -28.973871 0.000000 -0.000003 0.000003 -0.124373 -2.384779 45.108874 4.500571 -4.654513 88.071178 1.723225 -3.618373 50.920112 -0.000000 0.000000 -0.000003 0.154760 -4.068814 39.122658 6.509725 -4.273603 113.462850 2.549577 -4.153901 63.067337 -0.000000 0.000001 -0.000001 -4.198878 -8.025507 44.637783 4.252915 -4.639631 85.014839 6.935953 -4.062617 119.322326 -0.000001 -0.000001 0.000000 -38.393248 4.890699 17.789834 67.477283 -5.123498 4.219885 -13.883690 -8.856909 -15.519351 -10.111772 -0.103221 1.631048 0.000000 0.000001 -0.000000 -30.041573 -10.262984 -28.106275 61.384051 -5.935146 -9.707003 -24.784433 -5.504539 20.768449 -0.241719 -0.000010 -0.000002 0.000000 -0.000001 -0.000001 
